<svg xmlns="http://www.w3.org/2000/svg" viewBox="0 0 35.27 44.75"><defs><style>.cls-1{fill:#fff;}</style></defs><title>design_1</title><g id="Layer_2" data-name="Layer 2"><g id="Layer_1-2" data-name="Layer 1"><path class="cls-1" d="M35.27,30.77a7.46,7.46,0,0,0-7.45-7.46h-.94v-.93A1.87,1.87,0,0,0,25,20.51H2.64A1.87,1.87,0,0,0,.78,22.38V40.09a4.66,4.66,0,0,0,4.66,4.66H22.22a4.66,4.66,0,0,0,4.66-4.66V38.23h.94A7.46,7.46,0,0,0,35.27,30.77ZM27.82,34.5h-.47a.47.47,0,0,1-.47-.47V27.51a.47.47,0,0,1,.47-.47h.47a3.73,3.73,0,1,1,0,7.46Z"/><path class="cls-1" d="M5.8,5.34A.49.49,0,0,0,6,5a.51.51,0,0,0-.21-.41L1.41,1.69a.91.91,0,0,0-1,0,.93.93,0,0,0-.4.92L.8,7.36a.46.46,0,0,0,.68.33Z"/><path class="cls-1" d="M2.06,9.5a.46.46,0,0,0-.19.62l4.14,8a.94.94,0,0,0,.83.51h5.59a.93.93,0,0,0,.82-1.38L7.61,7A.47.47,0,0,0,7,6.82Z"/><path class="cls-1" d="M20.51,13.6h0a6.38,6.38,0,0,1-1.18-.65.47.47,0,0,0-.67.16l-2.32,4.16a.93.93,0,0,0,.81,1.39h3.42a.92.92,0,0,0,.87-.6l1.26-3.33a.47.47,0,0,0-.38-.63A6.63,6.63,0,0,1,21,13.8Z"/><path class="cls-1" d="M27,5.25A6.85,6.85,0,0,0,21.75,0a.93.93,0,0,0-1,1.41c1,1.51.4,2.4-.66,3.72a7.1,7.1,0,0,0-1,1.53,3.8,3.8,0,0,0,2.15,5.19,3.83,3.83,0,0,0,4.19-.48A6.26,6.26,0,0,0,27,5.25Z"/></g></g></svg>