<svg xmlns="http://www.w3.org/2000/svg" viewBox="0 0 1920 1083"><title>layer</title><g id="Layer_2" data-name="Layer 2"><g id="Layer_1-2" data-name="Layer 1"><polygon points="164.23 0 0 142.44 0 97.52 112.44 0 164.23 0"/><polygon points="267.57 0 0 232.07 0 187.15 215.79 0 267.57 0"/><polygon points="370.91 0 0 321.7 0 276.78 319.13 0 370.91 0"/><polygon points="474.26 0 0 411.33 0 366.42 422.47 0 474.26 0"/><polygon points="577.6 0 0 500.96 0 456.05 525.82 0 577.6 0"/><polygon points="680.94 0 0 590.59 0 545.68 629.16 0 680.94 0"/><polygon points="784.29 0 0 680.22 0 635.31 732.5 0 784.29 0"/><polygon points="887.63 0 0 769.85 0 724.94 835.85 0 887.63 0"/><polygon points="990.97 0 0 859.48 0 814.57 939.19 0 990.97 0"/><polygon points="1094.32 0 0 949.11 0 904.2 1042.53 0 1094.32 0"/><polygon points="1197.66 0 0 1038.74 0 993.83 1145.88 0 1197.66 0"/><polygon points="1301.01 0 52.32 1083 0.53 1083 1249.22 0 1301.01 0"/><polygon points="1404.35 0 155.66 1083 103.88 1083 1352.57 0 1404.35 0"/><polygon points="1507.69 0 259 1083 207.22 1083 1455.91 0 1507.69 0"/><polygon points="1611.04 0 362.35 1083 310.56 1083 1559.25 0 1611.04 0"/><polygon points="1714.38 0 465.69 1083 413.91 1083 1662.6 0 1714.38 0"/><polygon points="1817.72 0 569.03 1083 517.25 1083 1765.94 0 1817.72 0"/><polygon points="1920 0 1920 0.92 672.38 1083 620.59 1083 1869.28 0 1920 0"/><polygon points="1920 45.64 1920 90.56 775.72 1083 723.94 1083 1920 45.64"/><polygon points="1920 135.27 1920 180.19 879.07 1083 827.28 1083 1920 135.27"/><polygon points="1920 224.91 1920 269.82 982.41 1083 930.63 1083 1920 224.91"/><polygon points="1920 314.54 1920 359.45 1085.75 1083 1033.97 1083 1920 314.54"/><polygon points="1920 404.17 1920 449.08 1189.1 1083 1137.31 1083 1920 404.17"/><polygon points="1920 493.8 1920 538.71 1292.44 1083 1240.66 1083 1920 493.8"/><polygon points="1920 583.43 1920 628.34 1395.78 1083 1344 1083 1920 583.43"/><polygon points="1920 673.06 1920 717.97 1499.13 1083 1447.34 1083 1920 673.06"/><polygon points="1920 762.69 1920 807.6 1602.47 1083 1550.69 1083 1920 762.69"/><polygon points="1920 852.32 1920 897.23 1705.81 1083 1654.03 1083 1920 852.32"/><polygon points="1920 941.95 1920 986.86 1809.16 1083 1757.37 1083 1920 941.95"/></g></g></svg>