<svg xmlns="http://www.w3.org/2000/svg" xmlns:xlink="http://www.w3.org/1999/xlink" viewBox="0 0 304 365" id="el_h16mlvlu9">
    <style>
        @-webkit-keyframes el_1X6L4PClCW_Animation{26.67%{opacity: 0;}94.17%{opacity: 1;}0%{opacity: 0;}100%{opacity: 1;}}@keyframes el_1X6L4PClCW_Animation{26.67%{opacity: 0;}94.17%{opacity: 1;}0%{opacity: 0;}100%{opacity: 1;}}@-webkit-keyframes el_6M2XAFG9IB_2OOGFPa4r_Animation{0%{-webkit-transform: translate(-130px, 0px);transform: translate(-130px, 0px);}24.17%{-webkit-transform: translate(0px, 0px);transform: translate(0px, 0px);}100%{-webkit-transform: translate(0px, 0px);transform: translate(0px, 0px);}}@keyframes el_6M2XAFG9IB_2OOGFPa4r_Animation{0%{-webkit-transform: translate(-130px, 0px);transform: translate(-130px, 0px);}24.17%{-webkit-transform: translate(0px, 0px);transform: translate(0px, 0px);}100%{-webkit-transform: translate(0px, 0px);transform: translate(0px, 0px);}}#el_h16mlvlu9 *{-webkit-animation-duration: 4s;animation-duration: 4s;-webkit-animation-iteration-count: infinite;animation-iteration-count: infinite;-webkit-animation-timing-function: cubic-bezier(0, 0, 1, 1);animation-timing-function: cubic-bezier(0, 0, 1, 1);}#el_K2YuVkYsJQ{fill: #3a3a3a;}#el_WqTwOsy-bK{fill: #fff;}#el_97_ECATEnz{fill: #fff;}#el_RwDTVZGxLj{fill: #fff;}#el_dKVuhOAY0C{fill: #fff;}#el_6MZIkRUj-0{fill: #fff;}#el_6M2XAFG9IB{fill: #060606;}#el_1X6L4PClCW{fill: #010101;-webkit-animation-name: el_1X6L4PClCW_Animation;animation-name: el_1X6L4PClCW_Animation;}#el_kYFpikYzHC{fill: none;stroke: #fff;stroke-miterlimit: 10;stroke-width: 0.63px;}#el_Gevqx7nkoz{fill: #fff;-webkit-transform: translate(16.48px, 449.53px) rotate(-88.56deg);transform: translate(16.48px, 449.53px) rotate(-88.56deg);}#el_7QMjoB_1Vq{fill: #fff;}#el_jlxL9-zQ6Zr{fill: none;stroke-miterlimit: 10;stroke-width: 0.63px;stroke: #555963;}#el_0gzfpX2xIgC{fill: #555963;-webkit-transform: translate(-230.1px, 378.23px) rotate(-88.56deg);transform: translate(-230.1px, 378.23px) rotate(-88.56deg);}#el_eLDyIIOfcfD{fill: #555963;}#el_a4ncBqEhulz{fill: none;stroke: #fff;stroke-miterlimit: 10;stroke-width: 0.63px;}#el_BXh-I1m6MCL{fill: #fff;-webkit-transform: translate(125.14px, 318.21px) rotate(-88.53deg);transform: translate(125.14px, 318.21px) rotate(-88.53deg);}#el_mQ_yhG1ofZh{fill: #fff;}#el_wI8-cPq0yZY{fill: #fff;}#el_9eKPDeKULlu{fill: #fff;}#el_T4J0pXrJ0VB{fill: #fff;}#el_k2Mk5UZ8VvR{fill: #f2aa3c;}#el_NHcnFxW-2Mh{fill: #fff;}#el_HWmM8IbzLn4{fill: #fff;}#el_PAwGHmHsnPR{fill: #fff;}#el_BsDSgVOLho1{fill: #fff;}#el_n3gVgbJQ_je{fill: #fff;}#el_vqibFPEIn9q{fill: #fff;}#el_ms1GyJ0M4To{fill: #fff;}#el_m4QqKY_OkqS{opacity: 0.09;}#el_OvYT5NZOIsA{-webkit-clip-path: url(#clip-path);clip-path: url(#clip-path);}#el_VFHLZtz6TnN{fill: none;stroke-miterlimit: 10;stroke: #fefefe;stroke-width: 1.89px;}#el_QsyNk78iJdL{fill: none;stroke-miterlimit: 10;stroke: #fefefe;stroke-width: 1.89px;}#el_h1kVZvBLiXF{fill: none;stroke-miterlimit: 10;stroke: #fefefe;stroke-width: 1.89px;}#el_m6RPNQYBb03{fill: none;stroke-miterlimit: 10;stroke: #fefefe;stroke-width: 1.89px;}#el_DNdy6cJ04k9{fill: none;stroke-miterlimit: 10;stroke: #fefefe;stroke-width: 1.89px;}#el_ue5KayX4msA{fill: none;stroke-miterlimit: 10;stroke: #fefefe;stroke-width: 1.89px;}#el_6csqEj5sfwN{fill: none;stroke-miterlimit: 10;stroke: #fefefe;stroke-width: 1.89px;}#el_9txUAVku9WE{fill: none;stroke-miterlimit: 10;stroke: #fefefe;stroke-width: 1.89px;-webkit-transform: translate(-53.37px, 288.33px) rotate(-77.15deg);transform: translate(-53.37px, 288.33px) rotate(-77.15deg);}#el_maGU6a4a8uY{fill: none;stroke-miterlimit: 10;stroke: #fefefe;stroke-width: 1.89px;-webkit-transform: translate(-80.48px, 160.97px) rotate(-45deg);transform: translate(-80.48px, 160.97px) rotate(-45deg);}#el__jICt1P05Mj{fill: none;stroke-miterlimit: 10;stroke: #fefefe;stroke-width: 1.89px;-webkit-transform: translate(-56.25px, 72.48px) rotate(-22.5deg);transform: translate(-56.25px, 72.48px) rotate(-22.5deg);}#el_JPrn84WYAG0{fill: none;stroke-miterlimit: 10;stroke: #fefefe;stroke-width: 1.89px;}#el_DE_TF03ysee{fill: none;stroke-miterlimit: 10;stroke: #fefefe;stroke-width: 1.89px;-webkit-transform: translate(-69px, 251.99px) rotate(-67.5deg);transform: translate(-69px, 251.99px) rotate(-67.5deg);}#el_xw0ViS_b4kC{fill: none;stroke-miterlimit: 10;stroke: #fefefe;stroke-width: 1.89px;}#el_-UzGAiiB40D{fill: none;stroke-miterlimit: 10;stroke: #fefefe;stroke-width: 1.89px;}#el_uHDKdANrFlL{fill: none;stroke-miterlimit: 10;stroke: #fefefe;stroke-width: 1.89px;}#el_QDCk1y2elcb{opacity: 0.54;}#el_QHsc4cr4Vbc{-webkit-clip-path: url(#clip-path-2);clip-path: url(#clip-path-2);}#el_NNIeSUitGai{fill: none;stroke-miterlimit: 10;stroke: #fffbf4;stroke-width: 0.47px;}#el_PuwRoK4yR_d{fill: none;stroke-miterlimit: 10;stroke: #fffbf4;stroke-width: 0.47px;stroke-dasharray: 1.26 1.26;}#el_DcFaVxzzNNr{fill: none;stroke-miterlimit: 10;stroke: #fffbf4;stroke-width: 0.47px;}#el_cEim2CPb9aO{fill: none;stroke-miterlimit: 10;stroke: #fffbf4;stroke-width: 0.47px;}#el_6atTtE8aXAq{fill: none;stroke-miterlimit: 10;stroke: #fffbf4;stroke-width: 0.47px;stroke-dasharray: 1.26 1.26;}#el_wVmS9rXpQFu{fill: none;stroke-miterlimit: 10;stroke: #fffbf4;stroke-width: 0.47px;}#el_CN9XV4Nzdeh{fill: none;stroke-miterlimit: 10;stroke: #fffbf4;stroke-width: 0.47px;}#el_7BQQ7MG3Unv{fill: none;stroke-miterlimit: 10;stroke: #fffbf4;stroke-width: 0.47px;stroke-dasharray: 1.26 1.26;}#el_ZXraFEh1Bnm{fill: none;stroke-miterlimit: 10;stroke: #fffbf4;stroke-width: 0.47px;}#el_P2zbQRIKNp0{fill: none;stroke-miterlimit: 10;stroke: #fffbf4;stroke-width: 0.47px;}#el_ALK_DghO2yh{fill: none;stroke-miterlimit: 10;stroke: #fffbf4;stroke-width: 0.47px;stroke-dasharray: 1.26 1.26;}#el_y7putT-ex7L{fill: none;stroke-miterlimit: 10;stroke: #fffbf4;stroke-width: 0.47px;}#el_DzYxhWm0gwv{fill: none;stroke-miterlimit: 10;stroke: #fffbf4;stroke-width: 0.47px;}#el_Kny0g5BYPQC{fill: none;stroke-miterlimit: 10;stroke: #fffbf4;stroke-width: 0.47px;stroke-dasharray: 1.26 1.26;}#el_-mO_3nluoEh{fill: none;stroke-miterlimit: 10;stroke: #fffbf4;stroke-width: 0.47px;}#el_peHiBmsLsoc{fill: none;stroke-miterlimit: 10;stroke: #fffbf4;stroke-width: 0.47px;}#el_IZUqAfJQlcS{fill: none;stroke-miterlimit: 10;stroke: #fffbf4;stroke-width: 0.47px;stroke-dasharray: 1.26 1.26;}#el_c3xlaC_Vlxc{fill: none;stroke-miterlimit: 10;stroke: #fffbf4;stroke-width: 0.47px;}#el_V9DkDJocHit{fill: none;stroke-miterlimit: 10;stroke: #fffbf4;stroke-width: 0.47px;}#el_JxaMwcx8glJ{fill: none;stroke-miterlimit: 10;stroke: #fffbf4;stroke-width: 0.47px;stroke-dasharray: 1.26 1.26;}#el_N3JUnQE-myT{fill: none;stroke-miterlimit: 10;stroke: #fffbf4;stroke-width: 0.47px;}#el_-e8B2N4I96K{fill: none;stroke: #fff;stroke-miterlimit: 10;stroke-width: 0.63px;}#el_wovpErU-aai{fill: #fff;-webkit-transform: translate(-108.4px, 201.69px) rotate(-88.56deg);transform: translate(-108.4px, 201.69px) rotate(-88.56deg);}#el_n7EHwk3-49o{fill: #fff;}#el_O-2qGQeT06h{fill: #fff;}#el_sOmVwRcc_Tm{fill: #fff;}#el_IIA4IJDJgi2{fill: #fff;}#el_b-PkA6ZevtU{fill: #fff;}#el_1sgsX6tvwhS{fill: #fff;}#el_7XAPdUtW7wK{fill: #fff;}#el_7KHbDEuTleW{fill: #fff;}#el_8w9nhThJ6RB{fill: #fff;}#el_MmXCmPh3j8X{fill: #fff;}#el_zeQN_SENldv{fill: #fff;}#el_rGi2r_PnhOP{fill: #fff;}#el_BAV-0V2kMis{fill: #fff;}#el_Cp2MvqxOal-{fill: #fff;}#el_bN8A6GTt86h{fill: #fff;}#el_wGMqKnJjh38{fill: #fff;}#el_3zWWoFvbPDT{fill: #fff;}#el_ds11Wozs9-l{fill: #fff;}#el_Wdc1GZi26cs{fill: #fff;}#el_fou66wKMFhg{fill: #fff;}#el_J-V95lkJR45{fill: #fff;}#el_UqeaUDAV1KD{fill: #fff;}#el_6M2XAFG9IB_2OOGFPa4r{-webkit-animation-name: el_6M2XAFG9IB_2OOGFPa4r_Animation;animation-name: el_6M2XAFG9IB_2OOGFPa4r_Animation;-webkit-transform-origin: 50% 50%;transform-origin: 50% 50%;transform-box: fill-box;-webkit-transform: translate(0px, 0px);transform: translate(0px, 0px);}#el_1X6L4PClCW_NG_zSb9Fa{-webkit-transform-origin: 50% 50%;transform-origin: 50% 50%;transform-box: fill-box;}#el_1X6L4PClCW_uO67yePIG{-webkit-transform-origin: 50% 50%;transform-origin: 50% 50%;transform-box: fill-box;}
    </style>
    <defs>
        <clipPath id="clip-path">
            <rect class="cls-1" x="78.96" y="102.52" width="150.22" height="150.22"/>
        </clipPath>
        <clipPath id="clip-path-2">
            <rect class="cls-1" x="102.87" y="36.58" width="106.38" height="279.91"/>
        </clipPath>
    </defs>
    <title>
        phone
    </title>
    <g id="el_nQxDd-RvBE" data-name="Layer 2">
        <g id="el_kMnWzj8PON" data-name="Layer 1">
            <path d="M225.05,0H87.59a25,25,0,0,0-25,25V336.16a29.17,29.17,0,0,0,29.17,29.16H221.37a29.17,29.17,0,0,0,29.17-29.16V25.49A25.49,25.49,0,0,0,225.05,0m17.2,336.24a19.14,19.14,0,0,1-19.14,19.14H92a20.54,20.54,0,0,1-20.53-20.54V26.29a18,18,0,0,1,18-18H224.27a18,18,0,0,1,18,18Z" id="el_nQGoJcyVV_"/>
            <path d="M191.94,17.85H120.66A6.65,6.65,0,0,1,114,11.21V.71h84.56v10.5a6.64,6.64,0,0,1-6.64,6.64" id="el_jhpIhkAJxL"/>
            <path d="M224.56,338.24H90.26a10.5,10.5,0,1,1,0-21h134.3a10.5,10.5,0,0,1,0,21" id="el_K2YuVkYsJQ"/>
            <path d="M174.33,350.4h-36.6a.49.49,0,0,1-.49-.49v-.12a.49.49,0,0,1,.49-.49h36.6a.49.49,0,0,1,.49.49v.12a.49.49,0,0,1-.49.49" id="el_WqTwOsy-bK"/>
            <rect x="82.52" y="21.14" width="15.04" height="0.9" id="el_97_ECATEnz"/>
            <rect x="87.93" y="24.14" width="15.04" height="0.9" id="el_RwDTVZGxLj"/>
            <rect x="82.52" y="27.15" width="15.04" height="0.9" id="el_dKVuhOAY0C"/>
            <path d="M231.75,24.59a8,8,0,1,1-8-8,8,8,0,0,1,8,8" id="el_6MZIkRUj-0"/>
            <g id="el_6M2XAFG9IB_2OOGFPa4r" data-animator-group="true" data-animator-type="0">
                <path d="M210.19,327.74A13.27,13.27,0,1,1,223.45,341a13.26,13.26,0,0,1-13.26-13.27" id="el_6M2XAFG9IB"/>
            </g>
            <path d="M221.87,81.45c-18.52-12.35-37.63-12.85-55.25-6.06a7.67,7.67,0,0,1-5.09.16c-5.38-1.72-10.76-3.4-16.14-5-15.66-4.67-30.58-3.55-43.72,7.86A86.66,86.66,0,0,0,90,91a7.57,7.57,0,0,1-4.08,2.73c-28,7.14-41.8,38.45-48.82,69.27-7.28,32-.4,65.36,22,87.44,14.14,13.92,32.09,22.5,50.5,23.18a7.56,7.56,0,0,1,3.8,1.19c18.06,11.71,38.27,18,59.05,8.57a50.56,50.56,0,0,0,11.31-7.08,7.73,7.73,0,0,1,3.75-1.69c8.45-1.24,16.7-3.75,23.71-8a7.59,7.59,0,0,1,7.21-.34l0,0c5.56,2.62,12.47-.69,16.54-5,7.26-7.61,12.69-17.62,16.48-28.65a7.2,7.2,0,0,1,1.31-2.38,47.72,47.72,0,0,0,5.18-7.56,62.8,62.8,0,0,0,6.1-16.23,7.32,7.32,0,0,1,.45-1.37q.41-.92.78-1.86c17.95-45.72-8-98.16-43.43-121.81" id="el_1X6L4PClCW"/>
            <path d="M238.68,216.31a36.79,36.79,0,0,1,35.94,36.78v53.54" id="el_kYFpikYzHC"/>
            <rect x="237.82" y="215.42" width="1.79" height="1.79" id="el_Gevqx7nkoz"/>
            <polygon points="274.62 308.64 273.46 305.81 274.62 306.48 275.77 305.81 274.62 308.64" id="el_7QMjoB_1Vq"/>
            <path d="M78.92,307.1A36.79,36.79,0,0,1,43,270.32V250.68" id="el_jlxL9-zQ6Zr"/>
            <rect x="77.98" y="306.2" width="1.79" height="1.79" id="el_0gzfpX2xIgC"/>
            <polygon points="42.98 248.68 44.13 251.5 42.98 250.83 41.83 251.5 42.98 248.68" id="el_eLDyIIOfcfD"/>
            <path d="M225.8,95A36.79,36.79,0,0,1,262.58,59h5.93" id="el_a4ncBqEhulz"/>
            <rect x="224.91" y="94.02" width="1.79" height="1.79" id="el_BXh-I1m6MCL"/>
            <polygon points="270.51 59.01 267.69 60.17 268.36 59.01 267.69 57.86 270.51 59.01" id="el_mQ_yhG1ofZh"/>
            <polygon points="40.14 237.34 39.76 237.99 34.69 246.78 13.63 246.78 19.08 237.34 40.14 237.34" id="el_wI8-cPq0yZY"/>
            <polyline points="28.85 236.69 24.16 228.55 23.78 227.9 18.33 218.45 29.23 218.45 39.76 236.69" id="el_9eKPDeKULlu"/>
            <polygon points="23.4 228.54 18.7 236.68 18.33 237.34 12.87 246.78 12.5 246.13 7.42 237.34 17.95 219.1 23.4 228.54" id="el_T4J0pXrJ0VB"/>
            <path d="M231.13,217l-5.51-2.51h-9.87l-5,2.51-5.3,4.77,15.25,23.89,15.24-23.87Zm-15-1.07h9.23l3.67,1.67-3.67,1.67h-9.23l-3.34-1.67Zm14,10.5H211.28l5-5.73h8.88ZM207.3,222l4-3.56,3.52,1.76-5,5.72Zm13.39,21L211,227.82h19.32Zm5.94-22.76,3.94-1.78L234.1,222l-2.52,4Z" id="el_k2Mk5UZ8VvR"/>
            <path d="M303.39,94.91H277.12V68.65h26.27Zm1.21-27.47H275.91V96.13H304.6Z" id="el_NHcnFxW-2Mh"/>
            <path d="M280.77,84.73a13.52,13.52,0,0,1,2.25-.15,3.58,3.58,0,0,1,2.25.59,2.17,2.17,0,0,1,.78,1.7,2.35,2.35,0,0,1-.67,1.74,3.4,3.4,0,0,1-2.39.78,4.56,4.56,0,0,1-.57,0V92h-1.65Zm1.65,3.34a2.79,2.79,0,0,0,.56,0c.88,0,1.42-.44,1.42-1.2s-.46-1.08-1.29-1.08a2.92,2.92,0,0,0-.69.07Z" id="el_HWmM8IbzLn4"/>
            <path d="M286.82,90.53a3.13,3.13,0,0,0,1.42.41c.51,0,.71-.18.71-.45s-.16-.4-.78-.61c-1.1-.37-1.53-1-1.52-1.6,0-1,.85-1.75,2.17-1.75a3.51,3.51,0,0,1,1.51.31L290,88a2.6,2.6,0,0,0-1.15-.3c-.41,0-.64.16-.64.43s.21.38.87.61c1,.35,1.44.86,1.45,1.65,0,1-.79,1.72-2.32,1.72a3.75,3.75,0,0,1-1.72-.37Z" id="el_PAwGHmHsnPR"/>
            <path d="M303.29,62.43H277V36.17h26.26ZM304.5,35H275.82V63.64H304.5Z" id="el_BsDSgVOLho1"/>
            <path d="M284.08,59.74l-.69-1.38c-.28-.53-.46-.93-.68-1.37h0c-.16.44-.35.84-.59,1.37l-.63,1.38h-2l2.21-3.86-2.13-3.77h2l.67,1.4c.22.46.39.83.57,1.26h0c.18-.48.32-.82.52-1.26l.64-1.4h2l-2.15,3.73,2.26,3.9Z" id="el_n3gVgbJQ_je"/>
            <path d="M292.09,51.71v6.38c0,.62,0,1.28.05,1.65h-1.53l-.08-.82h0a1.92,1.92,0,0,1-1.73.94c-1.32,0-2.37-1.12-2.37-2.84s1.15-2.94,2.48-2.94a1.68,1.68,0,0,1,1.46.63h0v-3Zm-1.72,4.84c0-.09,0-.22,0-.31a1,1,0,0,0-1-.84c-.78,0-1.19.7-1.19,1.57s.47,1.53,1.18,1.53a1,1,0,0,0,1-.83,1.64,1.64,0,0,0,0-.4Z" id="el_vqibFPEIn9q"/>
            <path d="M289.15,316.69h-23.6a2.61,2.61,0,0,0-2.61,2.61v23.6a2.61,2.61,0,0,0,2.61,2.61h23.6a2.61,2.61,0,0,0,2.61-2.61V319.3a2.61,2.61,0,0,0-2.61-2.61m-16.58,5.59a1.74,1.74,0,1,1-1.76,1.74,1.75,1.75,0,0,1,1.76-1.74m11.78,16.6a2.36,2.36,0,0,1-2.64-2.51,4.46,4.46,0,0,1,.18-1.29l.86-3.06a3.21,3.21,0,0,0,.12-.93,1.44,1.44,0,0,0-1.55-1.58c-1.22,0-2,.87-2.43,2.56l-1.66,6.64h-2.9l.52-2.09a4.09,4.09,0,0,1-3.5,2.27,2.32,2.32,0,0,1-2.58-2.54,6.11,6.11,0,0,1,.15-1.3l1.32-5.4h-2l.62-2.29h4.92l-1.94,7.71a4.41,4.41,0,0,0-.19,1.18c0,.49.25.63.63.72a3.26,3.26,0,0,0,3.07-2.21l1.28-5.11h-2.08l.62-2.29h4.43L279,330c.78-1.45,2.33-2.83,3.86-2.83s3,1.16,3,3.39a6.5,6.5,0,0,1-.29,1.89l-.82,3a2.87,2.87,0,0,0-.14.8c0,.52.21.78.6.78s.88-.29,1.45-1.87l1.14.44c-.67,2.36-1.89,3.34-3.42,3.34" id="el_ms1GyJ0M4To"/>
            <g id="el_m4QqKY_OkqS">
                <g id="el_OvYT5NZOIsA">
                    <rect x="79.9" y="103.47" width="148.32" height="148.32" id="el_VFHLZtz6TnN"/>
                    <rect x="116.98" y="103.47" width="74.16" height="148.32" id="el_QsyNk78iJdL"/>
                    <line x1="154.07" y1="251.79" x2="154.07" y2="103.46" id="el_h1kVZvBLiXF"/>
                    <rect x="79.9" y="140.55" width="148.32" height="74.16" id="el_m6RPNQYBb03"/>
                    <line x1="228.23" y1="177.63" x2="79.9" y2="177.63" id="el_DNdy6cJ04k9"/>
                    <line x1="79.9" y1="251.79" x2="228.23" y2="103.46" id="el_ue5KayX4msA"/>
                    <line x1="228.23" y1="251.79" x2="79.9" y2="103.46" id="el_6csqEj5sfwN"/>
                    <circle cx="154.07" cy="177.63" r="74.16" id="el_9txUAVku9WE"/>
                    <circle cx="154.06" cy="177.63" r="51.91" id="el_maGU6a4a8uY"/>
                    <circle cx="154.07" cy="177.63" r="37.08" id="el__jICt1P05Mj"/>
                    <rect x="127.74" y="151.3" width="52.65" height="52.66" id="el_JPrn84WYAG0"/>
                    <circle cx="154.06" cy="177.63" r="26.33" id="el_DE_TF03ysee"/>
                    <rect x="135.53" y="159.09" width="37.08" height="37.08" id="el_xw0ViS_b4kC"/>
                    <path d="M135.52,177.63a18.55,18.55,0,1,1,18.55,18.54A18.55,18.55,0,0,1,135.52,177.63Z" id="el_-UzGAiiB40D"/>
                    <rect x="141.09" y="164.65" width="25.96" height="25.96" id="el_uHDKdANrFlL"/>
                </g>
            </g>
            <g id="el_QDCk1y2elcb">
                <g id="el_QHsc4cr4Vbc">
                    <line x1="103.73" y1="36.58" x2="103.73" y2="37.21" id="el_NNIeSUitGai"/>
                    <line x1="103.73" y1="38.47" x2="103.11" y2="314.75" id="el_PuwRoK4yR_d"/>
                    <line x1="103.11" y1="315.38" x2="103.11" y2="316.01" id="el_DcFaVxzzNNr"/>
                    <line x1="121.28" y1="36.66" x2="121.28" y2="37.3" id="el_cEim2CPb9aO"/>
                    <line x1="121.28" y1="38.55" x2="120.66" y2="314.83" id="el_6atTtE8aXAq"/>
                    <line x1="120.66" y1="315.46" x2="120.66" y2="316.09" id="el_wVmS9rXpQFu"/>
                    <line x1="138.83" y1="36.74" x2="138.83" y2="37.38" id="el_CN9XV4Nzdeh"/>
                    <line x1="138.82" y1="38.63" x2="138.21" y2="314.91" id="el_7BQQ7MG3Unv"/>
                    <line x1="138.2" y1="315.54" x2="138.2" y2="316.17" id="el_ZXraFEh1Bnm"/>
                    <line x1="156.38" y1="36.83" x2="156.37" y2="37.46" id="el_P2zbQRIKNp0"/>
                    <line x1="156.37" y1="38.72" x2="155.75" y2="314.99" id="el_ALK_DghO2yh"/>
                    <line x1="155.75" y1="315.62" x2="155.75" y2="316.25" id="el_y7putT-ex7L"/>
                    <line x1="173.92" y1="36.91" x2="173.92" y2="37.54" id="el_DzYxhWm0gwv"/>
                    <line x1="173.92" y1="38.8" x2="173.3" y2="315.07" id="el_Kny0g5BYPQC"/>
                    <line x1="173.3" y1="315.7" x2="173.3" y2="316.34" id="el_-mO_3nluoEh"/>
                    <line x1="191.47" y1="36.99" x2="191.47" y2="37.62" id="el_peHiBmsLsoc"/>
                    <line x1="191.47" y1="38.88" x2="190.85" y2="315.16" id="el_IZUqAfJQlcS"/>
                    <line x1="190.85" y1="315.78" x2="190.84" y2="316.42" id="el_c3xlaC_Vlxc"/>
                    <line x1="209.02" y1="37.07" x2="209.02" y2="37.7" id="el_V9DkDJocHit"/>
                    <line x1="209.01" y1="38.96" x2="208.39" y2="315.24" id="el_JxaMwcx8glJ"/>
                    <line x1="208.39" y1="315.87" x2="208.39" y2="316.5" id="el_N3JUnQE-myT"/>
                </g>
            </g>
            <path d="M49.26,156.44a36.8,36.8,0,0,1-35.94-36.79v-5.93" id="el_-e8B2N4I96K"/>
            <rect x="48.32" y="155.53" width="1.79" height="1.79" id="el_wovpErU-aai"/>
            <polygon points="13.32 111.72 14.47 114.54 13.32 113.87 12.16 114.54 13.32 111.72" id="el_n7EHwk3-49o"/>
            <polygon points="8 83.94 0 89.11 5.53 93.57 13.58 88.61 8 83.94" id="el_O-2qGQeT06h"/>
            <polygon points="0 97.94 8 103.2 13.58 98.54 5.53 93.57 0 97.94" id="el_sOmVwRcc_Tm"/>
            <polygon points="13.58 98.54 19.16 103.2 27.14 97.99 21.63 93.57 13.58 98.54" id="el_IIA4IJDJgi2"/>
            <polygon points="27.14 89.16 19.16 83.94 13.58 88.61 21.63 93.57 27.14 89.16" id="el_b-PkA6ZevtU"/>
            <polygon points="13.66 99.53 8.04 104.19 5.64 102.62 5.64 104.38 13.66 109.19 21.68 104.38 21.68 102.62 19.27 104.19 13.66 99.53" id="el_1sgsX6tvwhS"/>
            <path d="M156.32,211.85c.83.08,1.67-.06,2.52-.06a37.54,37.54,0,0,0,16.36-4.21c5.89-2.88,14.17-7.89,20.17-15.22,5.38-6.56,7.12-14.91,5.18-24.72-1.48-7.48-5.25-15.86-10.62-23.6-3.84-5.55-10.37-12.83-19.62-16-7.24-2.47-15.4-2.13-24.94,1-10.51,3.48-18.35,7.85-24,13.35a31.82,31.82,0,0,0-9.46,23.8c.27,18,10.18,39,28.62,44.41h0a4.41,4.41,0,0,0,5.49-3.06,3.83,3.83,0,0,0-2.72-4.9,28.43,28.43,0,0,1-14.21-10.15,11.5,11.5,0,0,0,.35-3,30.17,30.17,0,0,1,.73-6.09c.48-2.29,1.17-5,2-8s1.32-4.61,1.32-4.69c.27-1.11.46-1.6.59-1.47s.07,1.33.07,3.85c.09,1.14.14,2.8.14,4.95s0,3.86.13,5.1a26.39,26.39,0,0,0,.59,3.9c.31,1.36.88,3.33,1.72,4s1.92,1.9,3.24,1.9h.4c1.76,0,2.73-3.31,2.91-7.72a54,54,0,0,1,2.78-14.51,41.34,41.34,0,0,1,1.8-4.91c.25-.05.4.73.44,2.56.18,5.29.29,10.55.33,15.88s.07,9.23.07,11.74,0,4.9.13,7.19c0,.78.07,1.47.12,2.09a4.66,4.66,0,0,0,0,2.51,4.42,4.42,0,0,0,3.26,3.09l.5.11.54.18m-6.83-61.42a17.31,17.31,0,0,0-1.32,3.37c-.62,1.9-1.23,3.68-1.85,5.36s-1.1,2.51-1.46,2.51-.44-.68-.52-1.79-.2-2.29-.34-3.57a5.75,5.75,0,0,0-.59-2.44,2.54,2.54,0,0,0-2.25-1.19,7.33,7.33,0,0,0-3,1,15.16,15.16,0,0,1-2.51,1.19,4.77,4.77,0,0,1-1.39-.26c-.58-.18-.4-.26-.93-.26-1.76,0-1.91,1.63-1.91,4.89v1.32c0,3.7-1.81,9.39-4,17.06-.33,1.17-1,2.27-1.28,3.31a52,52,0,0,1-2-7.9c-1.26-8.29-.27-15,3.14-20,3.59-5.26,9.35-9.41,18.22-13.08,6.44-2.66,13.32-5,20.15-4.32,7.82.82,13.6,5.73,17.08,9.71a59.49,59.49,0,0,1,10.67,18.79c3,8.23,3.28,14.42.87,19.46-2.66,5.57-8.48,10.75-17.78,15.84-5.62,3.06-11,4.49-15.83,4.31-1.35-1.32-2.38-5.75-2.38-10.51V151.82c0-3.88-1.08-5.81-2.93-5.81s-3.81,1.23-5.84,3.7" id="el_7XAPdUtW7wK"/>
            <path d="M213.18,188A19.69,19.69,0,0,0,202,192.7c-2.48,2.11,1.11,5.66,3.57,3.57a13.88,13.88,0,0,1,7.64-3.25c3.21-.31,3.25-5.36,0-5.05" id="el_7KHbDEuTleW"/>
            <path d="M108.54,235.77a1,1,0,0,1-.81.41.73.73,0,0,1-.68-.42,3.33,3.33,0,0,1-.21-1.43c0-.91.1-2,.1-2.72,0-.44,0-.74-.15-.79a30.09,30.09,0,0,0-2,5.05c-.12.59-.36,1-.78,1a.68.68,0,0,1-.17,0c-.83-.17-.84-.76-.86-1.44l-.06-2.54c0-.3,0-.61,0-.87v-.64a13.43,13.43,0,0,0-1.4,4.26,1.65,1.65,0,0,0,0,.31c0,.05,0,.1,0,.16,0,.5-.47.75-.94.75a.9.9,0,0,1-.76-.34,1.51,1.51,0,0,1-.12-.77c0-1,.21-2.76.21-3.78,0-.18,0-.33,0-.46a2.72,2.72,0,0,1,0-.42.83.83,0,0,1,.14-.53.87.87,0,0,1,.74-.43,1,1,0,0,1,.81.41c.44-.68,1.08-1.46,1.47-1.46a1.52,1.52,0,0,1,1.1.73,6.6,6.6,0,0,1,.38,2.3c.71-1.28,1.69-2.92,2.38-3H107c.65,0,1.22.83,1.33,1.19a19.18,19.18,0,0,1,.18,3.26c0,.61,0,1.08,0,1.16v0c0,.23.16.42.16.68a.65.65,0,0,1-.13.39" id="el_8w9nhThJ6RB"/>
            <path d="M116.75,234.18c-.14.1-.49.39-.65.49-1,.73-2.47,1.83-3.8,1.83a2,2,0,0,1-.84-.16,3.41,3.41,0,0,1-1.92-3,2.37,2.37,0,0,1,.06-.59c.47-2.12,2.83-3.07,4.47-3.07.91,0,1.59.3,1.59.85a1.15,1.15,0,0,1-.31.73,5.8,5.8,0,0,1-4,2.06v.1c0,.65.51,1.5,1.16,1.5h0c1,0,2.73-1.56,3-1.81s.49-.73.9-.73a.94.94,0,0,1,.47.16.92.92,0,0,1,.45.73,1.24,1.24,0,0,1-.55.93m-2.89-3.2a3.81,3.81,0,0,0-2,.84,4.6,4.6,0,0,0,2-.84Z" id="el_MmXCmPh3j8X"/>
            <path d="M119.76,237.75h-.08c-.39,0-1-.3-1-.81a.92.92,0,0,1,.19-.52c.18-.27,2-.92,2-1,0-.33-3.1-.44-3.31-2.59a1.37,1.37,0,0,1,0-.29c0-1.79,1.59-3.17,2.78-4.16a1.26,1.26,0,0,1,.81-.27c.7,0,1.4.47,1.46,1,0,.05,0,.11,0,.18a.59.59,0,0,1-.65.65,1.29,1.29,0,0,1-.58-.16c-.39.06-1.08.91-1.37,1.25a2.91,2.91,0,0,0-.78,1.54v0c.23,1.28,3.17.71,3.43,2.79v0c0,.86-2.26,2.29-2.94,2.37" id="el_zeQN_SENldv"/>
            <path d="M125.61,237.75h-.08c-.39,0-1-.3-1-.81a.92.92,0,0,1,.19-.52c.18-.27,2-.92,2-1,0-.33-3.1-.44-3.31-2.59a1.37,1.37,0,0,1,0-.29c0-1.79,1.59-3.17,2.78-4.16a1.26,1.26,0,0,1,.81-.27c.7,0,1.4.47,1.46,1,0,.05,0,.11,0,.18a.59.59,0,0,1-.65.65,1.29,1.29,0,0,1-.58-.16c-.39.06-1.08.91-1.37,1.25a2.91,2.91,0,0,0-.78,1.54v0c.23,1.28,3.17.71,3.43,2.79v0c0,.86-2.26,2.29-2.94,2.37" id="el_rGi2r_PnhOP"/>
            <path d="M133.77,236.23a.54.54,0,0,1-.48.21,1,1,0,0,1-.69-.28,3.9,3.9,0,0,1-1.64.51,1.37,1.37,0,0,1-1-.41,1.67,1.67,0,0,1-.51-1.22,2.7,2.7,0,0,1,2.33-2.6,1.52,1.52,0,0,1,1.12.52v0a3.34,3.34,0,0,0-.41-1.62.72.72,0,0,0-.63-.41.67.67,0,0,0-.54.25.53.53,0,0,1-.58.45.81.81,0,0,1-.83-.73v-.08c0-.88,1.09-1.37,2.06-1.37a2.13,2.13,0,0,1,1,.23,3.51,3.51,0,0,1,1.56,3.22,8,8,0,0,1-.76,3.35m-1.92-2.2h0a.9.9,0,0,0-.76.7.75.75,0,0,0-.07.28c0,.1.05.14.13.14a3,3,0,0,0,1-.52c-.08-.25-.13-.6-.26-.6" id="el_BAV-0V2kMis"/>
            <path d="M141.31,232.43c-.12.86-.18,2.42-.72,6.59-.19,1.56-.32,2.24-.47,3.25a1.34,1.34,0,0,1,.31.81,1,1,0,0,1-1.09.9.89.89,0,0,1-1-.85.16.16,0,0,1,0-.1,1.92,1.92,0,0,1,.31-.95c.14-.23.23-2.54.42-4.81.16-1.77.21-2.64.33-3.77-1,1-2.3,2.53-2.95,2.53s-.87-.84-.87-1.82a26.15,26.15,0,0,1,.32-3.1c.15-1.4.59-1.84,1-1.84a1.12,1.12,0,0,1,1,.9h0c0,.39-.67,3-.67,3.37a.06.06,0,0,0,0,0,22.5,22.5,0,0,0,2.11-2.62c.15-.18.33-.88.93-.88a1,1,0,0,1,.36.07c.37.14.66,1.07.66,1.9,0,.11,0,.24,0,.36" id="el_Cp2MvqxOal-"/>
            <path d="M154.92,226.2c-.11.46-.37.65-.69.65a1.18,1.18,0,0,1-.59-.18,1.13,1.13,0,0,0-.57-.19c-.45,0-.75.42-1,1.17a11.42,11.42,0,0,0-.38,3.22v.42c.46,0,.88,0,1.32,0s.6-.11.84-.11.48.11.65.61a.88.88,0,0,1,.05.33c0,.45-.32.87-1.07.91s-1.3,0-1.75.05a26.46,26.46,0,0,1-.22,3.7c-.16,1.27-.42,2.49-.63,3.74a3.7,3.7,0,0,1-.21,1.05.71.71,0,0,1-.67.44,1.09,1.09,0,0,1-1-1.05,1.11,1.11,0,0,1,.28-.7,25.63,25.63,0,0,0,.63-3.54,24.6,24.6,0,0,0,.18-3,.89.89,0,0,1-.73.48,1,1,0,0,1-.93-1,.92.92,0,0,1,.26-.65,2.68,2.68,0,0,1,1.4-.87c0-.17,0-.33,0-.51,0-4.9,1.55-6.25,3.09-6.25a3.48,3.48,0,0,1,.47,0c.94.16,1.27.67,1.27,1.17a.47.47,0,0,1,0,.16" id="el_bN8A6GTt86h"/>
            <path d="M155.57,236.81a1.05,1.05,0,0,1-.95-.88,1.19,1.19,0,0,1,1-1.15,1,1,0,0,1,.94,1,1.15,1.15,0,0,1-1,1" id="el_wGMqKnJjh38"/>
            <path d="M175.12,229.05c0,3-5.31,6-7.52,7.31a1.07,1.07,0,0,1-1.06.84A.73.73,0,0,1,166,237l-.11,0c-.37,0-.54-.42-.54-.86a1.6,1.6,0,0,1,.18-.75c0-.4-.18-2.34-.18-3.74,0-.22,0-.45,0-.65.05-.95.16-2.76.23-3.75l-.54.18a.3.3,0,0,1-.13,0,1.15,1.15,0,0,1-1.07-1,.73.73,0,0,1,.42-.65,9.73,9.73,0,0,1,3.8-.78h.23c3.38,0,6.78,1.56,6.79,4Zm-6.58-2.36a5.3,5.3,0,0,0-.94.07,45.39,45.39,0,0,0-.44,5.37,17,17,0,0,0,.16,2.36c1.58-.88,5.37-3.33,5.89-5.12a1.91,1.91,0,0,0,0-.39c0-1.56-2.81-2.29-4.71-2.29" id="el_3zWWoFvbPDT"/>
            <path d="M181.44,234.18c-.14.1-.48.39-.65.49-1,.73-2.47,1.83-3.8,1.83a2,2,0,0,1-.84-.16,3.41,3.41,0,0,1-1.92-3,2.38,2.38,0,0,1,.07-.59c.47-2.12,2.82-3.07,4.46-3.07.91,0,1.6.3,1.6.85a1.21,1.21,0,0,1-.31.73,5.84,5.84,0,0,1-4,2.06v.1c0,.65.5,1.5,1.15,1.5h0c1,0,2.73-1.56,3-1.81s.48-.73.89-.73a.94.94,0,0,1,.47.16.91.91,0,0,1,.46.73,1.22,1.22,0,0,1-.56.93m-2.89-3.2a3.81,3.81,0,0,0-2,.84,4.6,4.6,0,0,0,2-.84Z" id="el_ds11Wozs9-l"/>
            <path d="M187.65,237.06a1,1,0,0,1-.63.29c-.76,0-.94-1.55-1-2.16-.13-1.07-.11-3.32-.15-3.32v0a28.55,28.55,0,0,0-1.57,3.9,1.66,1.66,0,0,1-.49.83,2,2,0,0,1-.62.13c-.61,0-.74-.59-.74-1.19v-.36c.14-1.83.08-3.41.32-5.08.07-.52.38-.72.72-.72a1.29,1.29,0,0,1,.89.41,1,1,0,0,1,.15.63c0,.31-.05.65-.07.86.94-1.39,1.61-1.94,2.1-1.94.91,0,1.1,2.06,1.1,4.17v.16c0,.25,0,.75,0,1.19a4.05,4.05,0,0,0,0,.68,2.12,2.12,0,0,1,.29.89.74.74,0,0,1-.31.61" id="el_Wdc1GZi26cs"/>
            <path d="M191.73,235.74a6.06,6.06,0,0,0-.62.71.82.82,0,0,1-.7.38.84.84,0,0,1-.82-.72.9.9,0,0,1-.54-.4,7.94,7.94,0,0,1-.05-1.2,28.91,28.91,0,0,1,.18-3.3.8.8,0,0,1-.23-.54,1.15,1.15,0,0,1,.52-.86,13.81,13.81,0,0,0,.44-2.83c0-.19-.1-.4-.11-.6,0,0,0-.08,0-.13a.76.76,0,0,1,.75-.83c.52,0,1.14.52,1.14,1.66a11.46,11.46,0,0,1-.43,2.44,3.42,3.42,0,0,1,3.12,1.82,1.08,1.08,0,0,1,.12.5c0,1.35-1.89,3.17-2.75,3.9m1.06-3.9a2.11,2.11,0,0,0-1.76-.63h-.13a11.59,11.59,0,0,0-.24,2.36c0,.34,0,.7.05,1,.86-.61,2.13-1.77,2.13-2.53a.8.8,0,0,0-.05-.26" id="el_fou66wKMFhg"/>
            <path d="M202.11,234.18c-.14.1-.48.39-.65.49-1,.73-2.47,1.83-3.8,1.83a2,2,0,0,1-.84-.16,3.41,3.41,0,0,1-1.92-3,2.38,2.38,0,0,1,.07-.59c.47-2.12,2.82-3.07,4.46-3.07.91,0,1.6.3,1.6.85a1.21,1.21,0,0,1-.31.73,5.84,5.84,0,0,1-4,2.06v.1c0,.65.5,1.5,1.15,1.5h0c1,0,2.73-1.56,3-1.81s.48-.73.89-.73a.94.94,0,0,1,.47.16.91.91,0,0,1,.46.73,1.22,1.22,0,0,1-.56.93m-2.89-3.2a3.64,3.64,0,0,0-1.1.28,3.54,3.54,0,0,0-.93.56,4.6,4.6,0,0,0,2.05-.84Z" id="el_J-V95lkJR45"/>
            <path d="M206.11,226.45c-.21,1.54-.45,3.13-.61,4.72a30.2,30.2,0,0,0-.2,3.27c0,.49,0,1,0,1.45v.19c0,.54-.15,1.32-.75,1.32a1.29,1.29,0,0,1-.68-.25c-.18-.11-.24-.86-.24-1.93,0-2.73.42-7.51.56-9a2.66,2.66,0,0,1,.38-1.33,1,1,0,0,1,.63-.3,1,1,0,0,1,.7.38,1,1,0,0,1,.24.75,4.84,4.84,0,0,1-.08.73" id="el_UqeaUDAV1KD"/>
        </g>
    </g>
    <script>
        (function(){var a=document.querySelector('#el_h16mlvlu9'),b=a.querySelectorAll('style'),c=function(d){b.forEach(function(f){var g=f.textContent;g&amp;&amp;(f.textContent=g.replace(/transform-box:[^;\r\n]*/gi,'transform-box: '+d))})};c('initial'),window.requestAnimationFrame(function(){return c('fill-box')})})();
    </script>
</svg>