<svg xmlns="http://www.w3.org/2000/svg" viewBox="0 0 52.25 52.25"><defs><style>.cls-1{fill:#fff;}</style></defs><title>research</title><g id="Layer_2" data-name="Layer 2"><g id="Layer_1-2" data-name="Layer 1"><path class="cls-1" d="M52.25,3.27A3.26,3.26,0,0,0,49,0H3.27A3.26,3.26,0,0,0,0,3.27V16.33a.54.54,0,0,0,.54.54H12.72a.56.56,0,0,0,.5-.33l1.64-3.84a2.72,2.72,0,0,1,2.5-1.65h.06a2.72,2.72,0,0,1,2.49,1.75l2.79,7.26a.53.53,0,0,0,.47.34.52.52,0,0,0,.51-.28l3.39-6.2a2.72,2.72,0,0,1,2.3-1.42,2.75,2.75,0,0,1,2.4,1.28l2.3,3.68a.56.56,0,0,0,.5.26A.56.56,0,0,0,35,17.4l3.76-8.28a1.63,1.63,0,1,1,3,1.35L37.16,20.6a2.72,2.72,0,0,1-4.78.32L30,17.09a.52.52,0,0,0-.47-.26.56.56,0,0,0-.47.28l-3.62,6.64a2.72,2.72,0,0,1-4.92-.32l-2.68-7a.55.55,0,0,0-.5-.35.56.56,0,0,0-.51.33l-.88,2a2.72,2.72,0,0,1-2.5,1.65H.54a.54.54,0,0,0-.54.54V30.75A3.27,3.27,0,0,0,3.27,34H22.32v3.64a4.29,4.29,0,0,0-.75.6L12.23,47.6a2.72,2.72,0,1,0,3.85,3.85l8.57-8.57a.53.53,0,0,1,.77,0L34,51.45a2.7,2.7,0,0,0,1.92.8,2.73,2.73,0,0,0,1.93-4.65L28.5,38.26a4.63,4.63,0,0,0-.74-.6V34H49a3.27,3.27,0,0,0,3.27-3.27Z"/></g></g></svg>