<svg xmlns="http://www.w3.org/2000/svg" viewBox="0 0 1222.6 705.92"><defs><style>.cls-1{fill:#555963;}.cls-2{fill:#aaacbe;}.cls-3{fill:#fa3416;}.cls-4{fill:#9ae379;}.cls-5{fill:#2cc2ad;}.cls-6{fill:#ffeb00;}</style></defs><title>svg-bg</title><g id="Layer_2" data-name="Layer 2"><g id="Layer_1-2" data-name="Layer 1"><rect class="cls-1" x="1206.54" y="413.66" width="13.31" height="13.31" transform="translate(2368.26 -140.33) rotate(135)"/><rect class="cls-2" x="414.79" y="83.98" width="15.87" height="15.87" transform="translate(20.58 251.37) rotate(-33.9)"/><polygon class="cls-3" points="908.35 79.29 903.63 104.06 878.87 99.34 880.16 92.54 898.63 96.06 902.05 78.09 908.35 79.29"/><rect class="cls-4" x="421.28" y="434.31" width="16.74" height="16.74" rx="8.37" ry="8.37" transform="translate(90.36 -72.53) rotate(10.78)"/><path class="cls-5" d="M1006.87,705.9h0A12.61,12.61,0,0,1,995,692.58l.74-2.58,25.16,1.47-.73,2.58A12.61,12.61,0,0,1,1006.87,705.9Z"/><path class="cls-6" d="M11.87,15.9h0A12.61,12.61,0,0,1,0,2.58L.76,0,25.92,1.47l-.73,2.58A12.61,12.61,0,0,1,11.87,15.9Z"/></g></g></svg>