<svg xmlns="http://www.w3.org/2000/svg" viewBox="0 0 31 37.5"><defs><style>.cls-1{fill:#fff;}</style></defs><title>user</title><g id="Layer_2" data-name="Layer 2"><g id="Layer_1-2" data-name="Layer 1"><path class="cls-1" d="M14.75,37.5H2.25A2.25,2.25,0,0,1,0,35.25V29c0-.18.1-4.5,8.5-4.5S17,28.82,17,29v6.25A2.25,2.25,0,0,1,14.75,37.5ZM8.5,25.5C1.16,25.5,1,28.86,1,29v6.24A1.25,1.25,0,0,0,2.25,36.5h12.5A1.25,1.25,0,0,0,16,35.25V29C16,28.86,15.84,25.5,8.5,25.5Z"/><path class="cls-1" d="M8.5,23.5A4.5,4.5,0,1,1,13,19,4.51,4.51,0,0,1,8.5,23.5Zm0-8A3.5,3.5,0,1,0,12,19,3.5,3.5,0,0,0,8.5,15.5Z"/><path class="cls-1" d="M14.25,33a1.75,1.75,0,0,1-1.75-1.75V25s0-4,8-4,8,4,8,4v6.25A1.75,1.75,0,0,1,26.75,33Z"/><circle class="cls-1" cx="20.5" cy="15" r="5"/><path class="cls-1" d="M25.75,10.5h-.07a.25.25,0,0,1-.18-.24V8h-6A1.49,1.49,0,0,1,18,6.51v-5A1.49,1.49,0,0,1,19.49,0h10A1.49,1.49,0,0,1,31,1.49v5A1.49,1.49,0,0,1,29.51,8h-2L26,10.39A.26.26,0,0,1,25.75,10.5ZM19.49.5a1,1,0,0,0-1,1v5a1,1,0,0,0,1,1h6.26a.25.25,0,0,1,.25.25V9.43l1.21-1.82a.26.26,0,0,1,.21-.11h2.09a1,1,0,0,0,1-1v-5a1,1,0,0,0-1-1Z"/><path class="cls-1" d="M5.92,13.25a.25.25,0,0,1-.21-.11l-1.6-2.39H2.16A1.49,1.49,0,0,1,.67,9.26v-5A1.49,1.49,0,0,1,2.16,2.75h10a1.5,1.5,0,0,1,1.5,1.49v5a1.5,1.5,0,0,1-1.5,1.49h-6V13a.26.26,0,0,1-.18.24Zm-3.76-10a1,1,0,0,0-1,1v5a1,1,0,0,0,1,1H4.25a.26.26,0,0,1,.21.11l1.21,1.81V10.5a.25.25,0,0,1,.25-.25h6.25a1,1,0,0,0,1-1v-5a1,1,0,0,0-1-1Z"/><line class="cls-1" x1="4" y1="5.5" x2="10" y2="5.5"/><path class="cls-1" d="M10,5.75H4a.25.25,0,0,1,0-.5h6a.25.25,0,0,1,0,.5Z"/><line class="cls-1" x1="4" y1="7.5" x2="10" y2="7.5"/><path class="cls-1" d="M10,7.75H4a.25.25,0,0,1,0-.5h6a.25.25,0,0,1,0,.5Z"/><line class="cls-1" x1="21" y1="3" x2="28.5" y2="3"/><path class="cls-1" d="M28.5,3.25H21a.25.25,0,0,1,0-.5h7.5a.25.25,0,0,1,0,.5Z"/><line class="cls-1" x1="21" y1="5.5" x2="28.5" y2="5.5"/><path class="cls-1" d="M28.5,5.75H21a.25.25,0,0,1,0-.5h7.5a.25.25,0,0,1,0,.5Z"/></g></g></svg>