<svg xmlns="http://www.w3.org/2000/svg" viewBox="0 0 59.25 59.88"><defs><style>.cls-1{fill:#fff;}</style></defs><title>user-r</title><g id="Layer_2" data-name="Layer 2"><g id="Layer_1-2" data-name="Layer 1"><path class="cls-1" d="M44.75,46.64a11.91,11.91,0,0,0-8.38,3.47.65.65,0,0,0-.14.7,19.93,19.93,0,0,1,1.59,7.81c0,.2,0,.4,0,.59a.61.61,0,0,0,.17.47.63.63,0,0,0,.46.2h17a1.26,1.26,0,0,0,1.26-1.26A12,12,0,0,0,44.75,46.64Z"/><path class="cls-1" d="M23.6,39.34A12.25,12.25,0,1,0,17.49,41,12.55,12.55,0,0,0,23.6,39.34Zm-13-14.61a16.91,16.91,0,0,0,10.27,3.48,17.08,17.08,0,0,0,4.25-.56c0,.19.05.37.05.56a7.72,7.72,0,0,1-15.44,0A7.57,7.57,0,0,1,10.64,24.73Z"/><path class="cls-1" d="M17,41.6a17,17,0,0,0-17,17,1.26,1.26,0,0,0,1.26,1.26H32.78A1.27,1.27,0,0,0,34,58.62,17,17,0,0,0,17,41.6Zm1.89,10.57a1.89,1.89,0,0,1-3.78,0V48.5a1.89,1.89,0,1,1,3.78,0Z"/><circle class="cls-1" cx="44.75" cy="37.39" r="8.23"/><path class="cls-1" d="M58.51,23.43,53,17.91a12.39,12.39,0,0,0,1.22-5.3A12.74,12.74,0,1,0,49.94,22l5,5a2.52,2.52,0,1,0,3.56-3.57ZM41.6,20.17a7.57,7.57,0,1,1,7.56-7.56A7.57,7.57,0,0,1,41.6,20.17Z"/></g></g></svg>