<svg xmlns="http://www.w3.org/2000/svg" viewBox="0 0 37.58 37.58"><defs><style>.cls-1{fill:#fff;}</style></defs><title>user</title><g id="Layer_2" data-name="Layer 2"><g id="Layer_1-2" data-name="Layer 1"><circle class="cls-1" cx="20.54" cy="8.61" r="1.57"/><circle class="cls-1" cx="25.63" cy="8.61" r="1.57"/><circle class="cls-1" cx="30.72" cy="8.61" r="1.57"/><path class="cls-1" d="M29,0h-9.4a8.67,8.67,0,0,0-8.4,6.75,1.57,1.57,0,0,0,3.06.67,5.51,5.51,0,0,1,5.34-4.29H29a5.48,5.48,0,1,1,0,11H27.4a1.55,1.55,0,0,0-1,.35l-1.37,1.1a1.57,1.57,0,0,0-1.56-1.45H21.92a1.57,1.57,0,0,0,0,3.13v1.57A1.57,1.57,0,0,0,24.47,20L28,17.22h1A8.61,8.61,0,0,0,29,0Z"/><path class="cls-1" d="M18,27.13l-1-.36c-.34-.21-.4-2.06-.12-2.52C18,23,19.19,21.4,19.19,17.5S16.72,11,13.31,11,7.43,13.71,7.43,17.5,8.61,23,9.7,24.22a3.44,3.44,0,0,1-.1,2.55l-1,.36C4.78,28.54,2,29.56,1.17,31.25A14.26,14.26,0,0,0,0,36.8a.78.78,0,0,0,.78.78H25.84a.78.78,0,0,0,.78-.78,14.26,14.26,0,0,0-1.17-5.55C24.6,29.56,21.84,28.54,18,27.13Z"/></g></g></svg>